<svg xmlns="http://www.w3.org/2000/svg" xmlns:xlink="http://www.w3.org/1999/xlink" width="1227" zoomAndPan="magnify" viewBox="0 0 920.25 502.499985" height="670" preserveAspectRatio="xMidYMid meet" version="1.0"><defs><g/><clipPath id="f3dfdcfd12"><path d="M 167 0.355469 L 246 0.355469 L 246 332 L 167 332 Z M 167 0.355469 " clip-rule="nonzero"/></clipPath><clipPath id="5194a339da"><rect x="0" width="79" y="0" height="332"/></clipPath><clipPath id="65e607579d"><path d="M 0.527344 0.355469 L 168 0.355469 L 168 332 L 0.527344 332 Z M 0.527344 0.355469 " clip-rule="nonzero"/></clipPath><clipPath id="6931f9b8f5"><rect x="0" width="168" y="0" height="332"/></clipPath><clipPath id="5940740bdb"><path d="M 252 0.355469 L 746.902344 0.355469 L 746.902344 332 L 252 332 Z M 252 0.355469 " clip-rule="nonzero"/></clipPath><clipPath id="0e20aa24da"><rect x="0" width="495" y="0" height="332"/></clipPath><clipPath id="fe744e8220"><path d="M 266 268 L 746.902344 268 L 746.902344 367.910156 L 266 367.910156 Z M 266 268 " clip-rule="nonzero"/></clipPath><clipPath id="931d546acd"><rect x="0" width="481" y="0" height="100"/></clipPath><clipPath id="a92747f9b7"><rect x="0" width="747" y="0" height="368"/></clipPath></defs><g transform="matrix(1, 0, 0, 1, 77, 85)"><g clip-path="url(#a92747f9b7)"><g clip-path="url(#f3dfdcfd12)"><g transform="matrix(1, 0, 0, 1, 167, 0)"><g clip-path="url(#5194a339da)"><g fill="#ffffff" fill-opacity="1"><g transform="translate(10.200459, 268.915005)"><g><path d="M 19.859375 -180.03125 L 19.859375 -213.03125 L 65.328125 -213.03125 L 65.328125 -180.03125 Z M -7.25 55 L -7.25 19.59375 C -0.894531 19.59375 4.289062 18.425781 8.3125 16.09375 C 12.34375 13.769531 15.316406 10.6875 17.234375 6.84375 C 19.160156 3 20.125 -1.25 20.125 -5.90625 L 20.125 -158.03125 L 65.46875 -158.03125 L 65.46875 -7.375 C 65.46875 13.632812 59.609375 29.28125 47.890625 39.5625 C 36.171875 49.851562 17.789062 55 -7.25 55 Z M -7.25 55 "/></g></g></g></g></g></g><g clip-path="url(#65e607579d)"><g><g clip-path="url(#6931f9b8f5)"><g fill="#ffffff" fill-opacity="1"><g transform="translate(0.575371, 268.915005)"><g><path d="M 74.328125 3.359375 C 64.304688 3.359375 55.289062 1.390625 47.28125 -2.546875 C 39.28125 -6.484375 32.460938 -12.09375 26.828125 -19.375 C 21.191406 -26.664062 16.898438 -35.363281 13.953125 -45.46875 C 11.003906 -55.582031 9.53125 -66.765625 9.53125 -79.015625 C 9.53125 -91.265625 10.984375 -102.398438 13.890625 -112.421875 C 16.796875 -122.441406 21.019531 -131.09375 26.5625 -138.375 C 32.101562 -145.664062 38.832031 -151.28125 46.75 -155.21875 C 54.664062 -159.15625 63.585938 -161.125 73.515625 -161.125 C 81.296875 -161.125 88.023438 -160.25 93.703125 -158.5 C 99.378906 -156.757812 104.253906 -154.410156 108.328125 -151.453125 C 112.398438 -148.503906 115.910156 -145.195312 118.859375 -141.53125 L 119.671875 -141.53125 L 119.671875 -213.03125 L 165.015625 -213.03125 L 165.015625 0 L 120.734375 0 L 120.734375 -16.5 L 119.796875 -16.5 C 117.296875 -13.28125 114.054688 -10.148438 110.078125 -7.109375 C 106.097656 -4.066406 101.203125 -1.5625 95.390625 0.40625 C 89.578125 2.375 82.554688 3.359375 74.328125 3.359375 Z M 89.484375 -33.140625 C 96.097656 -33.140625 101.863281 -34.945312 106.78125 -38.5625 C 111.707031 -42.1875 115.554688 -47.441406 118.328125 -54.328125 C 121.097656 -61.210938 122.484375 -69.578125 122.484375 -79.421875 C 122.484375 -88.722656 121.097656 -96.726562 118.328125 -103.4375 C 115.554688 -110.144531 111.707031 -115.304688 106.78125 -118.921875 C 101.863281 -122.546875 96.097656 -124.359375 89.484375 -124.359375 C 78.660156 -124.359375 70.25 -120.601562 64.25 -113.09375 C 58.257812 -105.582031 55.265625 -94.359375 55.265625 -79.421875 C 55.265625 -63.679688 58.257812 -52.03125 64.25 -44.46875 C 70.25 -36.914062 78.660156 -33.140625 89.484375 -33.140625 Z M 89.484375 -33.140625 "/></g></g></g></g></g></g><g clip-path="url(#5940740bdb)"><g transform="matrix(1, 0, 0, 1, 252, 0)"><g clip-path="url(#0e20aa24da)"><g fill="#ffffff" fill-opacity="1"><g transform="translate(0.638855, 268.915005)"><g><path d="M 20.125 0 L 20.125 -213.03125 L 64.65625 -213.03125 L 64.65625 -139.25 L 66.40625 -139.25 C 69.445312 -143.09375 73.269531 -146.671875 77.875 -149.984375 C 82.476562 -153.296875 87.84375 -155.976562 93.96875 -158.03125 C 100.101562 -160.09375 106.925781 -161.125 114.4375 -161.125 C 125.4375 -161.125 134.984375 -158.753906 143.078125 -154.015625 C 151.171875 -149.273438 157.453125 -142.519531 161.921875 -133.75 C 166.398438 -124.988281 168.640625 -114.570312 168.640625 -102.5 L 168.640625 0 L 123.953125 0 L 123.953125 -92.4375 C 123.953125 -103.882812 121.535156 -112.066406 116.703125 -116.984375 C 111.878906 -121.898438 105.351562 -124.359375 97.125 -124.359375 C 90.957031 -124.359375 85.503906 -123.039062 80.765625 -120.40625 C 76.023438 -117.769531 72.289062 -113.585938 69.5625 -107.859375 C 66.832031 -102.140625 65.46875 -94.628906 65.46875 -85.328125 L 65.46875 0 Z M 20.125 0 "/></g></g></g><g fill="#ffffff" fill-opacity="1"><g transform="translate(166.657393, 268.915005)"><g><path d="M 20.125 -180.03125 L 20.125 -213.03125 L 65.328125 -213.03125 L 65.328125 -180.03125 Z M 20.125 0 L 20.125 -158.03125 L 65.328125 -158.03125 L 65.328125 0 Z M 20.125 0 "/></g></g></g><g fill="#ffffff" fill-opacity="1"><g transform="translate(232.873548, 268.915005)"><g><path d="M 20.125 0 L 20.125 -158.03125 L 63.859375 -158.03125 L 63.859375 -129.59375 L 64.65625 -129.59375 C 68.957031 -140.945312 75.488281 -149.039062 84.25 -153.875 C 93.007812 -158.707031 103.96875 -161.125 117.125 -161.125 L 117.125 -121.953125 C 107.1875 -121.140625 98.882812 -119.320312 92.21875 -116.5 C 85.5625 -113.6875 80.265625 -109.773438 76.328125 -104.765625 C 72.398438 -99.765625 69.582031 -93.484375 67.875 -85.921875 C 66.175781 -78.367188 65.328125 -69.40625 65.328125 -59.03125 L 65.328125 0 Z M 20.125 0 "/></g></g></g><g fill="#ffffff" fill-opacity="1"><g transform="translate(333.162024, 268.915005)"><g><path d="M 92.171875 -32.0625 C 96.816406 -32.0625 101.441406 -32.820312 106.046875 -34.34375 C 110.648438 -35.863281 114.894531 -38.097656 118.78125 -41.046875 C 122.675781 -44.003906 125.878906 -47.628906 128.390625 -51.921875 L 158.296875 -29.25 C 151.773438 -20.570312 144.847656 -13.882812 137.515625 -9.1875 C 130.179688 -4.488281 122.644531 -1.269531 114.90625 0.46875 C 107.164062 2.207031 99.363281 3.078125 91.5 3.078125 C 79.601562 3.078125 68.597656 1.425781 58.484375 -1.875 C 48.378906 -5.1875 39.59375 -10.195312 32.125 -16.90625 C 24.65625 -23.613281 18.863281 -32.039062 14.75 -42.1875 C 10.644531 -52.34375 8.59375 -64.257812 8.59375 -77.9375 C 8.59375 -90.726562 10.425781 -102.242188 14.09375 -112.484375 C 17.757812 -122.722656 22.988281 -131.460938 29.78125 -138.703125 C 36.582031 -145.953125 44.695312 -151.5 54.125 -155.34375 C 63.5625 -159.195312 74.050781 -161.125 85.59375 -161.125 C 96.320312 -161.125 106.15625 -159.378906 115.09375 -155.890625 C 124.039062 -152.398438 131.800781 -147.34375 138.375 -140.71875 C 144.945312 -134.101562 150.019531 -126.078125 153.59375 -116.640625 C 157.175781 -107.210938 158.96875 -96.503906 158.96875 -84.515625 C 158.96875 -82.910156 158.945312 -81.410156 158.90625 -80.015625 C 158.863281 -78.628906 158.726562 -77.039062 158.5 -75.25 C 158.28125 -73.46875 157.945312 -71.144531 157.5 -68.28125 L 54.203125 -68.28125 C 54.378906 -61.039062 56.117188 -54.710938 59.421875 -49.296875 C 62.734375 -43.890625 67.226562 -39.664062 72.90625 -36.625 C 78.59375 -33.582031 85.015625 -32.0625 92.171875 -32.0625 Z M 84.921875 -127.578125 C 78.390625 -127.578125 73.046875 -126.367188 68.890625 -123.953125 C 64.734375 -121.546875 61.554688 -118.375 59.359375 -114.4375 C 57.171875 -110.5 55.71875 -106.160156 55 -101.421875 L 114.5625 -101.421875 C 113.582031 -109.378906 110.65625 -115.726562 105.78125 -120.46875 C 100.90625 -125.207031 93.953125 -127.578125 84.921875 -127.578125 Z M 84.921875 -127.578125 "/></g></g></g></g></g></g><g clip-path="url(#fe744e8220)"><g transform="matrix(1, 0, 0, 1, 266, 268)"><g clip-path="url(#931d546acd)"><g fill="#ffffff" fill-opacity="1"><g transform="translate(1.284308, 81.02235)"><g><path d="M 35.53125 -35.859375 L 63.3125 -35.859375 L 63.3125 0 L 51.625 0 L 51.59375 -7.71875 C 50.40625 -5.675781 48.859375 -3.972656 46.953125 -2.609375 C 45.054688 -1.242188 42.898438 -0.210938 40.484375 0.484375 C 38.078125 1.179688 35.507812 1.53125 32.78125 1.53125 C 28.207031 1.53125 24.117188 0.769531 20.515625 -0.75 C 16.921875 -2.269531 13.867188 -4.476562 11.359375 -7.375 C 8.847656 -10.269531 6.9375 -13.773438 5.625 -17.890625 C 4.320312 -22.003906 3.671875 -26.632812 3.671875 -31.78125 C 3.671875 -37.113281 4.375 -41.878906 5.78125 -46.078125 C 7.1875 -50.285156 9.226562 -53.859375 11.90625 -56.796875 C 14.582031 -59.734375 17.84375 -61.96875 21.6875 -63.5 C 25.53125 -65.039062 29.890625 -65.8125 34.765625 -65.8125 C 38.429688 -65.8125 41.753906 -65.347656 44.734375 -64.421875 C 47.710938 -63.492188 50.335938 -62.191406 52.609375 -60.515625 C 54.890625 -58.847656 56.8125 -56.894531 58.375 -54.65625 C 59.9375 -52.414062 61.132812 -49.976562 61.96875 -47.34375 L 49.4375 -43.34375 C 48.28125 -46.8125 46.484375 -49.46875 44.046875 -51.3125 C 41.609375 -53.164062 38.53125 -54.09375 34.8125 -54.09375 C 31.875 -54.09375 29.335938 -53.550781 27.203125 -52.46875 C 25.078125 -51.394531 23.328125 -49.878906 21.953125 -47.921875 C 20.578125 -45.972656 19.554688 -43.660156 18.890625 -40.984375 C 18.234375 -38.316406 17.90625 -35.394531 17.90625 -32.21875 C 17.90625 -29.226562 18.207031 -26.425781 18.8125 -23.8125 C 19.425781 -21.195312 20.382812 -18.910156 21.6875 -16.953125 C 23 -15.003906 24.71875 -13.476562 26.84375 -12.375 C 28.96875 -11.269531 31.554688 -10.71875 34.609375 -10.71875 C 37.140625 -10.71875 39.328125 -11.09375 41.171875 -11.84375 C 43.023438 -12.601562 44.5625 -13.640625 45.78125 -14.953125 C 47.007812 -16.273438 47.96875 -17.78125 48.65625 -19.46875 C 49.34375 -21.15625 49.78125 -22.925781 49.96875 -24.78125 L 35.53125 -24.78125 Z M 35.53125 -35.859375 "/></g></g></g><g fill="#ffffff" fill-opacity="1"><g transform="translate(69.917156, 81.02235)"><g><path d="M 26.203125 1.015625 C 22.828125 1.015625 19.703125 0.488281 16.828125 -0.5625 C 13.960938 -1.613281 11.460938 -3.175781 9.328125 -5.25 C 7.203125 -7.332031 5.546875 -9.910156 4.359375 -12.984375 C 3.179688 -16.054688 2.59375 -19.613281 2.59375 -23.65625 C 2.59375 -27.75 3.179688 -31.34375 4.359375 -34.4375 C 5.546875 -37.539062 7.203125 -40.132812 9.328125 -42.21875 C 11.460938 -44.3125 13.960938 -45.890625 16.828125 -46.953125 C 19.703125 -48.015625 22.828125 -48.546875 26.203125 -48.546875 C 29.566406 -48.546875 32.675781 -48.015625 35.53125 -46.953125 C 38.394531 -45.890625 40.890625 -44.3125 43.015625 -42.21875 C 45.140625 -40.132812 46.789062 -37.539062 47.96875 -34.4375 C 49.144531 -31.34375 49.734375 -27.75 49.734375 -23.65625 C 49.734375 -19.613281 49.144531 -16.054688 47.96875 -12.984375 C 46.789062 -9.910156 45.140625 -7.332031 43.015625 -5.25 C 40.890625 -3.175781 38.394531 -1.613281 35.53125 -0.5625 C 32.675781 0.488281 29.566406 1.015625 26.203125 1.015625 Z M 26.28125 -10.03125 C 28.25 -10.03125 29.992188 -10.488281 31.515625 -11.40625 C 33.035156 -12.320312 34.238281 -13.773438 35.125 -15.765625 C 36.019531 -17.765625 36.46875 -20.394531 36.46875 -23.65625 C 36.46875 -26.988281 36.019531 -29.671875 35.125 -31.703125 C 34.238281 -33.742188 33.035156 -35.226562 31.515625 -36.15625 C 29.992188 -37.09375 28.25 -37.5625 26.28125 -37.5625 C 24.34375 -37.5625 22.597656 -37.09375 21.046875 -36.15625 C 19.492188 -35.226562 18.269531 -33.742188 17.375 -31.703125 C 16.488281 -29.671875 16.046875 -26.988281 16.046875 -23.65625 C 16.046875 -20.394531 16.488281 -17.757812 17.375 -15.75 C 18.269531 -13.738281 19.492188 -12.28125 21.046875 -11.375 C 22.597656 -10.476562 24.34375 -10.03125 26.28125 -10.03125 Z M 26.28125 -10.03125 "/></g></g></g><g fill="#ffffff" fill-opacity="1"><g transform="translate(122.260818, 81.02235)"><g><path d="M 6.0625 0 L 6.0625 -64.203125 L 19.734375 -64.203125 L 19.734375 0 Z M 6.0625 0 "/></g></g></g><g fill="#ffffff" fill-opacity="1"><g transform="translate(148.048661, 81.02235)"><g><path d="M 22.390625 1.015625 C 19.378906 1.015625 16.664062 0.421875 14.25 -0.765625 C 11.832031 -1.953125 9.773438 -3.644531 8.078125 -5.84375 C 6.378906 -8.039062 5.085938 -10.660156 4.203125 -13.703125 C 3.316406 -16.753906 2.875 -20.125 2.875 -23.8125 C 2.875 -27.5 3.3125 -30.851562 4.1875 -33.875 C 5.0625 -36.894531 6.332031 -39.503906 8 -41.703125 C 9.675781 -43.898438 11.707031 -45.585938 14.09375 -46.765625 C 16.476562 -47.953125 19.164062 -48.546875 22.15625 -48.546875 C 24.5 -48.546875 26.523438 -48.285156 28.234375 -47.765625 C 29.953125 -47.242188 31.421875 -46.535156 32.640625 -45.640625 C 33.867188 -44.753906 34.925781 -43.757812 35.8125 -42.65625 L 36.0625 -42.65625 L 36.0625 -64.203125 L 49.734375 -64.203125 L 49.734375 0 L 36.390625 0 L 36.390625 -4.96875 L 36.109375 -4.96875 C 35.347656 -4 34.367188 -3.054688 33.171875 -2.140625 C 31.972656 -1.222656 30.492188 -0.46875 28.734375 0.125 C 26.984375 0.71875 24.867188 1.015625 22.390625 1.015625 Z M 26.96875 -9.984375 C 28.957031 -9.984375 30.691406 -10.53125 32.171875 -11.625 C 33.660156 -12.71875 34.820312 -14.300781 35.65625 -16.375 C 36.488281 -18.445312 36.90625 -20.96875 36.90625 -23.9375 C 36.90625 -26.738281 36.488281 -29.148438 35.65625 -31.171875 C 34.820312 -33.191406 33.660156 -34.75 32.171875 -35.84375 C 30.691406 -36.9375 28.957031 -37.484375 26.96875 -37.484375 C 23.707031 -37.484375 21.171875 -36.347656 19.359375 -34.078125 C 17.554688 -31.816406 16.65625 -28.4375 16.65625 -23.9375 C 16.65625 -19.1875 17.554688 -15.671875 19.359375 -13.390625 C 21.171875 -11.117188 23.707031 -9.984375 26.96875 -9.984375 Z M 26.96875 -9.984375 "/></g></g></g><g fill="#ffffff" fill-opacity="1"><g transform="translate(203.828008, 81.02235)"><g><path d="M 34.15625 1.53125 C 27.875 1.53125 22.457031 0.257812 17.90625 -2.28125 C 13.351562 -4.832031 9.859375 -8.609375 7.421875 -13.609375 C 4.984375 -18.609375 3.765625 -24.769531 3.765625 -32.09375 C 3.765625 -39.457031 4.984375 -45.628906 7.421875 -50.609375 C 9.859375 -55.597656 13.351562 -59.363281 17.90625 -61.90625 C 22.457031 -64.457031 27.875 -65.734375 34.15625 -65.734375 C 38.851562 -65.734375 43.066406 -64.960938 46.796875 -63.421875 C 50.523438 -61.890625 53.675781 -59.65625 56.25 -56.71875 C 58.820312 -53.78125 60.726562 -50.195312 61.96875 -45.96875 L 48.75 -41.890625 C 47.894531 -45.679688 46.210938 -48.570312 43.703125 -50.5625 C 41.191406 -52.5625 38.007812 -53.5625 34.15625 -53.5625 C 30.488281 -53.5625 27.441406 -52.695312 25.015625 -50.96875 C 22.597656 -49.25 20.78125 -46.785156 19.5625 -43.578125 C 18.351562 -40.367188 17.75 -36.539062 17.75 -32.09375 C 17.75 -27.644531 18.351562 -23.8125 19.5625 -20.59375 C 20.78125 -17.375 22.597656 -14.898438 25.015625 -13.171875 C 27.441406 -11.453125 30.488281 -10.59375 34.15625 -10.59375 C 38.007812 -10.59375 41.191406 -11.59375 43.703125 -13.59375 C 46.210938 -15.601562 47.894531 -18.507812 48.75 -22.3125 L 61.96875 -18.234375 C 60.726562 -14.023438 58.820312 -10.445312 56.25 -7.5 C 53.675781 -4.550781 50.523438 -2.304688 46.796875 -0.765625 C 43.066406 0.765625 38.851562 1.53125 34.15625 1.53125 Z M 34.15625 1.53125 "/></g></g></g><g fill="#ffffff" fill-opacity="1"><g transform="translate(268.176356, 81.02235)"><g><path d="M 26.203125 1.015625 C 22.828125 1.015625 19.703125 0.488281 16.828125 -0.5625 C 13.960938 -1.613281 11.460938 -3.175781 9.328125 -5.25 C 7.203125 -7.332031 5.546875 -9.910156 4.359375 -12.984375 C 3.179688 -16.054688 2.59375 -19.613281 2.59375 -23.65625 C 2.59375 -27.75 3.179688 -31.34375 4.359375 -34.4375 C 5.546875 -37.539062 7.203125 -40.132812 9.328125 -42.21875 C 11.460938 -44.3125 13.960938 -45.890625 16.828125 -46.953125 C 19.703125 -48.015625 22.828125 -48.546875 26.203125 -48.546875 C 29.566406 -48.546875 32.675781 -48.015625 35.53125 -46.953125 C 38.394531 -45.890625 40.890625 -44.3125 43.015625 -42.21875 C 45.140625 -40.132812 46.789062 -37.539062 47.96875 -34.4375 C 49.144531 -31.34375 49.734375 -27.75 49.734375 -23.65625 C 49.734375 -19.613281 49.144531 -16.054688 47.96875 -12.984375 C 46.789062 -9.910156 45.140625 -7.332031 43.015625 -5.25 C 40.890625 -3.175781 38.394531 -1.613281 35.53125 -0.5625 C 32.675781 0.488281 29.566406 1.015625 26.203125 1.015625 Z M 26.28125 -10.03125 C 28.25 -10.03125 29.992188 -10.488281 31.515625 -11.40625 C 33.035156 -12.320312 34.238281 -13.773438 35.125 -15.765625 C 36.019531 -17.765625 36.46875 -20.394531 36.46875 -23.65625 C 36.46875 -26.988281 36.019531 -29.671875 35.125 -31.703125 C 34.238281 -33.742188 33.035156 -35.226562 31.515625 -36.15625 C 29.992188 -37.09375 28.25 -37.5625 26.28125 -37.5625 C 24.34375 -37.5625 22.597656 -37.09375 21.046875 -36.15625 C 19.492188 -35.226562 18.269531 -33.742188 17.375 -31.703125 C 16.488281 -29.671875 16.046875 -26.988281 16.046875 -23.65625 C 16.046875 -20.394531 16.488281 -17.757812 17.375 -15.75 C 18.269531 -13.738281 19.492188 -12.28125 21.046875 -11.375 C 22.597656 -10.476562 24.34375 -10.03125 26.28125 -10.03125 Z M 26.28125 -10.03125 "/></g></g></g><g fill="#ffffff" fill-opacity="1"><g transform="translate(320.520018, 81.02235)"><g><path d="M 24.90625 -48.546875 C 28.8125 -48.546875 32.207031 -47.941406 35.09375 -46.734375 C 37.976562 -45.523438 40.207031 -43.695312 41.78125 -41.25 C 43.351562 -38.8125 44.140625 -35.773438 44.140625 -32.140625 L 44.140625 0 L 32.140625 0 L 32.140625 -4.9375 C 29.285156 -2.644531 26.617188 -1.078125 24.140625 -0.234375 C 21.660156 0.597656 19.300781 1.015625 17.0625 1.015625 C 14.070312 1.015625 11.46875 0.488281 9.25 -0.5625 C 7.039062 -1.613281 5.328125 -3.132812 4.109375 -5.125 C 2.898438 -7.125 2.296875 -9.523438 2.296875 -12.328125 C 2.296875 -14.648438 2.710938 -16.675781 3.546875 -18.40625 C 4.390625 -20.144531 5.566406 -21.660156 7.078125 -22.953125 C 8.585938 -24.253906 10.363281 -25.375 12.40625 -26.3125 C 14.457031 -27.257812 16.679688 -28.070312 19.078125 -28.75 L 32.140625 -32.46875 C 32.035156 -34.375 31.3125 -35.832031 29.96875 -36.84375 C 28.632812 -37.851562 26.8125 -38.359375 24.5 -38.359375 C 22.695312 -38.359375 20.859375 -38.078125 18.984375 -37.515625 C 17.109375 -36.953125 15.304688 -36.179688 13.578125 -35.203125 C 11.859375 -34.234375 10.335938 -33.128906 9.015625 -31.890625 L 3.1875 -40.90625 C 6.476562 -43.582031 9.984375 -45.523438 13.703125 -46.734375 C 17.421875 -47.941406 21.15625 -48.546875 24.90625 -48.546875 Z M 21.015625 -8.609375 C 22.910156 -8.609375 24.785156 -9.085938 26.640625 -10.046875 C 28.503906 -11.003906 30.335938 -12.265625 32.140625 -13.828125 L 32.140625 -22.71875 L 22.3125 -19.5625 C 20.101562 -18.863281 18.457031 -18.054688 17.375 -17.140625 C 16.300781 -16.222656 15.765625 -14.96875 15.765625 -13.375 C 15.765625 -11.894531 16.226562 -10.726562 17.15625 -9.875 C 18.09375 -9.03125 19.378906 -8.609375 21.015625 -8.609375 Z M 21.015625 -8.609375 "/></g></g></g><g fill="#ffffff" fill-opacity="1"><g transform="translate(369.710934, 81.02235)"><g><path d="M 22.6875 0.96875 C 20.28125 0.96875 17.820312 0.679688 15.3125 0.109375 C 12.8125 -0.453125 10.378906 -1.289062 8.015625 -2.40625 C 5.660156 -3.519531 3.488281 -4.875 1.5 -6.46875 L 8 -15.8125 C 9.21875 -14.507812 10.617188 -13.328125 12.203125 -12.265625 C 13.796875 -11.203125 15.488281 -10.359375 17.28125 -9.734375 C 19.070312 -9.117188 20.882812 -8.8125 22.71875 -8.8125 C 23.957031 -8.8125 25.085938 -8.976562 26.109375 -9.3125 C 27.140625 -9.65625 27.957031 -10.179688 28.5625 -10.890625 C 29.164062 -11.609375 29.46875 -12.519531 29.46875 -13.625 C 29.46875 -14.96875 28.945312 -15.945312 27.90625 -16.5625 C 26.875 -17.1875 25.320312 -17.769531 23.25 -18.3125 L 17.390625 -19.84375 C 14.609375 -20.601562 12.226562 -21.5625 10.25 -22.71875 C 8.269531 -23.875 6.753906 -25.347656 5.703125 -27.140625 C 4.648438 -28.941406 4.125 -31.144531 4.125 -33.75 C 4.125 -37.09375 4.925781 -39.851562 6.53125 -42.03125 C 8.132812 -44.21875 10.359375 -45.847656 13.203125 -46.921875 C 16.046875 -48.003906 19.328125 -48.546875 23.046875 -48.546875 C 25.929688 -48.546875 28.53125 -48.222656 30.84375 -47.578125 C 33.164062 -46.929688 35.273438 -46.078125 37.171875 -45.015625 C 39.078125 -43.953125 40.8125 -42.773438 42.375 -41.484375 L 36.296875 -33.15625 C 34.203125 -35.25 31.988281 -36.816406 29.65625 -37.859375 C 27.320312 -38.898438 25.09375 -39.421875 22.96875 -39.421875 C 21.207031 -39.421875 19.785156 -39.0625 18.703125 -38.34375 C 17.628906 -37.632812 17.09375 -36.628906 17.09375 -35.328125 C 17.09375 -34.304688 17.476562 -33.507812 18.25 -32.9375 C 19.019531 -32.375 20.117188 -31.90625 21.546875 -31.53125 L 29.4375 -29.390625 C 31.050781 -28.960938 32.660156 -28.40625 34.265625 -27.71875 C 35.867188 -27.03125 37.34375 -26.132812 38.6875 -25.03125 C 40.039062 -23.925781 41.117188 -22.515625 41.921875 -20.796875 C 42.734375 -19.085938 43.140625 -16.96875 43.140625 -14.4375 C 43.140625 -9.550781 41.40625 -5.757812 37.9375 -3.0625 C 34.476562 -0.375 29.394531 0.96875 22.6875 0.96875 Z M 22.6875 0.96875 "/></g></g></g><g fill="#ffffff" fill-opacity="1"><g transform="translate(415.385327, 81.02235)"><g><path d="M 20.296875 0 C 15.878906 0 12.628906 -1.144531 10.546875 -3.4375 C 8.472656 -5.726562 7.4375 -9.234375 7.4375 -13.953125 L 7.4375 -39.5 L 1.015625 -39.5 L 1.015625 -47.625 L 7.4375 -47.625 L 7.4375 -64.203125 L 21.015625 -64.203125 L 21.015625 -47.625 L 30.96875 -47.625 L 30.96875 -39.5 L 21.015625 -39.5 L 21.015625 -16.703125 C 21.015625 -15.109375 21.160156 -13.863281 21.453125 -12.96875 C 21.753906 -12.082031 22.289062 -11.460938 23.0625 -11.109375 C 23.832031 -10.765625 24.890625 -10.59375 26.234375 -10.59375 L 30.96875 -10.59375 L 30.96875 0 Z M 20.296875 0 "/></g></g></g><g fill="#ffffff" fill-opacity="1"><g transform="translate(449.055034, 81.02235)"><g><path d="M 8.328125 0 L 8.328125 -14.71875 L 22.921875 -14.71875 L 22.921875 0 Z M 8.328125 0 "/></g></g></g></g></g></g></g></g></svg>