<svg xmlns="http://www.w3.org/2000/svg" xmlns:xlink="http://www.w3.org/1999/xlink" width="876" zoomAndPan="magnify" viewBox="0 0 657 358.49999" height="478" preserveAspectRatio="xMidYMid meet" version="1.0"><defs><g/><clipPath id="df3c235712"><rect x="0" width="56" y="0" height="237"/></clipPath><clipPath id="4d594fe391"><rect x="0" width="120" y="0" height="237"/></clipPath><clipPath id="e0dfa6dc5a"><rect x="0" width="354" y="0" height="237"/></clipPath><clipPath id="cbb2885457"><rect x="0" width="344" y="0" height="73"/></clipPath></defs><g transform="matrix(1, 0, 0, 1, 175, 60)"><g clip-path="url(#df3c235712)"><g fill="#d9d9d9" fill-opacity="1"><g transform="translate(6.802513, 192.562875)"><g><path d="M 14.171875 -128.46875 L 14.171875 -152.03125 L 46.625 -152.03125 L 46.625 -128.46875 Z M -5.171875 39.25 L -5.171875 13.984375 C -0.640625 13.984375 3.0625 13.148438 5.9375 11.484375 C 8.8125 9.828125 10.929688 7.625 12.296875 4.875 C 13.671875 2.132812 14.359375 -0.894531 14.359375 -4.21875 L 14.359375 -112.78125 L 46.71875 -112.78125 L 46.71875 -5.265625 C 46.71875 9.734375 42.535156 20.898438 34.171875 28.234375 C 25.816406 35.578125 12.703125 39.25 -5.171875 39.25 Z M -5.171875 39.25 "/></g></g></g></g></g><g transform="matrix(1, 0, 0, 1, 55, 60)"><g clip-path="url(#4d594fe391)"><g fill="#d9d9d9" fill-opacity="1"><g transform="translate(0.758253, 192.562875)"><g><path d="M 53.03125 2.390625 C 45.882812 2.390625 39.453125 0.988281 33.734375 -1.8125 C 28.023438 -4.625 23.160156 -8.628906 19.140625 -13.828125 C 15.117188 -19.035156 12.054688 -25.242188 9.953125 -32.453125 C 7.847656 -39.660156 6.796875 -47.640625 6.796875 -56.390625 C 6.796875 -65.128906 7.832031 -73.070312 9.90625 -80.21875 C 11.976562 -87.375 14.992188 -93.550781 18.953125 -98.75 C 22.910156 -103.945312 27.710938 -107.945312 33.359375 -110.75 C 39.003906 -113.5625 45.375 -114.96875 52.46875 -114.96875 C 58.019531 -114.96875 62.820312 -114.347656 66.875 -113.109375 C 70.925781 -111.867188 74.398438 -110.191406 77.296875 -108.078125 C 80.203125 -105.972656 82.707031 -103.613281 84.8125 -101 L 85.390625 -101 L 85.390625 -152.03125 L 117.75 -152.03125 L 117.75 0 L 86.15625 0 L 86.15625 -11.78125 L 85.484375 -11.78125 C 83.703125 -9.476562 81.390625 -7.238281 78.546875 -5.0625 C 75.710938 -2.894531 72.21875 -1.113281 68.0625 0.28125 C 63.914062 1.6875 58.90625 2.390625 53.03125 2.390625 Z M 63.859375 -23.640625 C 68.578125 -23.640625 72.691406 -24.929688 76.203125 -27.515625 C 79.710938 -30.109375 82.457031 -33.859375 84.4375 -38.765625 C 86.414062 -43.679688 87.40625 -49.648438 87.40625 -56.671875 C 87.40625 -63.304688 86.414062 -69.015625 84.4375 -73.796875 C 82.457031 -78.585938 79.710938 -82.273438 76.203125 -84.859375 C 72.691406 -87.453125 68.578125 -88.75 63.859375 -88.75 C 56.128906 -88.75 50.125 -86.066406 45.84375 -80.703125 C 41.570312 -75.335938 39.4375 -67.328125 39.4375 -56.671875 C 39.4375 -45.441406 41.570312 -37.128906 45.84375 -31.734375 C 50.125 -26.335938 56.128906 -23.640625 63.859375 -23.640625 Z M 63.859375 -23.640625 "/></g></g></g></g></g><g transform="matrix(1, 0, 0, 1, 235, 60)"><g clip-path="url(#e0dfa6dc5a)"><g fill="#d9d9d9" fill-opacity="1"><g transform="translate(0.637261, 192.562875)"><g><path d="M 14.359375 0 L 14.359375 -152.03125 L 46.140625 -152.03125 L 46.140625 -99.375 L 47.390625 -99.375 C 49.554688 -102.113281 52.28125 -104.664062 55.5625 -107.03125 C 58.851562 -109.394531 62.6875 -111.304688 67.0625 -112.765625 C 71.4375 -114.234375 76.300781 -114.96875 81.65625 -114.96875 C 89.507812 -114.96875 96.320312 -113.273438 102.09375 -109.890625 C 107.875 -106.515625 112.359375 -101.695312 115.546875 -95.4375 C 118.742188 -89.1875 120.34375 -81.753906 120.34375 -73.140625 L 120.34375 0 L 88.453125 0 L 88.453125 -65.953125 C 88.453125 -74.128906 86.726562 -79.972656 83.28125 -83.484375 C 79.84375 -86.992188 75.1875 -88.75 69.3125 -88.75 C 64.90625 -88.75 61.007812 -87.804688 57.625 -85.921875 C 54.25 -84.035156 51.585938 -81.050781 49.640625 -76.96875 C 47.691406 -72.882812 46.71875 -67.523438 46.71875 -60.890625 L 46.71875 0 Z M 14.359375 0 "/></g></g></g><g fill="#d9d9d9" fill-opacity="1"><g transform="translate(119.11237, 192.562875)"><g><path d="M 14.359375 -128.46875 L 14.359375 -152.03125 L 46.625 -152.03125 L 46.625 -128.46875 Z M 14.359375 0 L 14.359375 -112.78125 L 46.625 -112.78125 L 46.625 0 Z M 14.359375 0 "/></g></g></g><g fill="#d9d9d9" fill-opacity="1"><g transform="translate(166.365926, 192.562875)"><g><path d="M 14.359375 0 L 14.359375 -112.78125 L 45.5625 -112.78125 L 45.5625 -92.484375 L 46.140625 -92.484375 C 49.203125 -100.585938 53.859375 -106.359375 60.109375 -109.796875 C 66.367188 -113.242188 74.191406 -114.96875 83.578125 -114.96875 L 83.578125 -87.015625 C 76.492188 -86.441406 70.570312 -85.148438 65.8125 -83.140625 C 61.0625 -81.128906 57.28125 -78.335938 54.46875 -74.765625 C 51.664062 -71.191406 49.65625 -66.707031 48.4375 -61.3125 C 47.226562 -55.925781 46.625 -49.53125 46.625 -42.125 L 46.625 0 Z M 14.359375 0 "/></g></g></g><g fill="#d9d9d9" fill-opacity="1"><g transform="translate(237.934367, 192.562875)"><g><path d="M 65.765625 -22.875 C 69.085938 -22.875 72.390625 -23.414062 75.671875 -24.5 C 78.960938 -25.59375 81.992188 -27.191406 84.765625 -29.296875 C 87.546875 -31.398438 89.828125 -33.984375 91.609375 -37.046875 L 112.96875 -20.875 C 108.3125 -14.675781 103.363281 -9.898438 98.125 -6.546875 C 92.894531 -3.203125 87.519531 -0.910156 82 0.328125 C 76.476562 1.578125 70.910156 2.203125 65.296875 2.203125 C 56.804688 2.203125 48.953125 1.023438 41.734375 -1.328125 C 34.523438 -3.691406 28.253906 -7.269531 22.921875 -12.0625 C 17.597656 -16.851562 13.46875 -22.867188 10.53125 -30.109375 C 7.59375 -37.347656 6.125 -45.851562 6.125 -55.625 C 6.125 -64.75 7.429688 -72.960938 10.046875 -80.265625 C 12.671875 -87.578125 16.40625 -93.816406 21.25 -98.984375 C 26.101562 -104.160156 31.894531 -108.117188 38.625 -110.859375 C 45.363281 -113.597656 52.847656 -114.96875 61.078125 -114.96875 C 68.734375 -114.96875 75.753906 -113.722656 82.140625 -111.234375 C 88.523438 -108.753906 94.0625 -105.148438 98.75 -100.421875 C 103.4375 -95.703125 107.054688 -89.972656 109.609375 -83.234375 C 112.160156 -76.503906 113.4375 -68.863281 113.4375 -60.3125 C 113.4375 -59.164062 113.421875 -58.097656 113.390625 -57.109375 C 113.359375 -56.117188 113.265625 -54.984375 113.109375 -53.703125 C 112.953125 -52.429688 112.710938 -50.773438 112.390625 -48.734375 L 38.671875 -48.734375 C 38.804688 -43.554688 40.050781 -39.035156 42.40625 -35.171875 C 44.769531 -31.316406 47.976562 -28.300781 52.03125 -26.125 C 56.082031 -23.957031 60.660156 -22.875 65.765625 -22.875 Z M 60.59375 -91.046875 C 55.9375 -91.046875 52.125 -90.179688 49.15625 -88.453125 C 46.1875 -86.734375 43.921875 -84.46875 42.359375 -81.65625 C 40.796875 -78.851562 39.757812 -75.757812 39.25 -72.375 L 81.75 -72.375 C 81.050781 -78.050781 78.960938 -82.582031 75.484375 -85.96875 C 72.003906 -89.351562 67.039062 -91.046875 60.59375 -91.046875 Z M 60.59375 -91.046875 "/></g></g></g></g></g><g transform="matrix(1, 0, 0, 1, 245, 251)"><g clip-path="url(#cbb2885457)"><g fill="#d9d9d9" fill-opacity="1"><g transform="translate(1.088629, 58.729567)"><g><path d="M 25.359375 -25.59375 L 45.171875 -25.59375 L 45.171875 0 L 36.84375 0 L 36.8125 -5.515625 C 35.96875 -4.046875 34.863281 -2.828125 33.5 -1.859375 C 32.144531 -0.890625 30.609375 -0.15625 28.890625 0.34375 C 27.171875 0.84375 25.335938 1.09375 23.390625 1.09375 C 20.117188 1.09375 17.195312 0.550781 14.625 -0.53125 C 12.0625 -1.613281 9.882812 -3.1875 8.09375 -5.25 C 6.3125 -7.320312 4.953125 -9.820312 4.015625 -12.75 C 3.085938 -15.6875 2.625 -18.992188 2.625 -22.671875 C 2.625 -26.484375 3.125 -29.890625 4.125 -32.890625 C 5.125 -35.890625 6.578125 -38.4375 8.484375 -40.53125 C 10.398438 -42.625 12.726562 -44.21875 15.46875 -45.3125 C 18.21875 -46.414062 21.332031 -46.96875 24.8125 -46.96875 C 27.425781 -46.96875 29.796875 -46.632812 31.921875 -45.96875 C 34.046875 -45.300781 35.921875 -44.367188 37.546875 -43.171875 C 39.171875 -41.984375 40.539062 -40.59375 41.65625 -39 C 42.769531 -37.40625 43.625 -35.664062 44.21875 -33.78125 L 35.28125 -30.921875 C 34.457031 -33.398438 33.171875 -35.296875 31.421875 -36.609375 C 29.679688 -37.929688 27.488281 -38.59375 24.84375 -38.59375 C 22.738281 -38.59375 20.925781 -38.207031 19.40625 -37.4375 C 17.894531 -36.675781 16.644531 -35.597656 15.65625 -34.203125 C 14.675781 -32.804688 13.953125 -31.15625 13.484375 -29.25 C 13.015625 -27.34375 12.78125 -25.253906 12.78125 -22.984375 C 12.78125 -20.847656 12.992188 -18.847656 13.421875 -16.984375 C 13.859375 -15.117188 14.539062 -13.488281 15.46875 -12.09375 C 16.40625 -10.707031 17.632812 -9.617188 19.15625 -8.828125 C 20.675781 -8.035156 22.519531 -7.640625 24.6875 -7.640625 C 26.5 -7.640625 28.0625 -7.910156 29.375 -8.453125 C 30.695312 -8.992188 31.796875 -9.734375 32.671875 -10.671875 C 33.546875 -11.617188 34.226562 -12.691406 34.71875 -13.890625 C 35.207031 -15.085938 35.519531 -16.351562 35.65625 -17.6875 L 25.359375 -17.6875 Z M 25.359375 -25.59375 "/></g></g></g><g fill="#d9d9d9" fill-opacity="1"><g transform="translate(50.066798, 58.729567)"><g><path d="M 18.6875 0.71875 C 16.289062 0.71875 14.066406 0.34375 12.015625 -0.40625 C 9.960938 -1.15625 8.175781 -2.269531 6.65625 -3.75 C 5.144531 -5.226562 3.960938 -7.0625 3.109375 -9.25 C 2.265625 -11.445312 1.84375 -13.988281 1.84375 -16.875 C 1.84375 -19.800781 2.265625 -22.367188 3.109375 -24.578125 C 3.960938 -26.785156 5.144531 -28.632812 6.65625 -30.125 C 8.175781 -31.613281 9.960938 -32.738281 12.015625 -33.5 C 14.066406 -34.257812 16.289062 -34.640625 18.6875 -34.640625 C 21.09375 -34.640625 23.3125 -34.257812 25.34375 -33.5 C 27.382812 -32.738281 29.164062 -31.613281 30.6875 -30.125 C 32.207031 -28.632812 33.382812 -26.785156 34.21875 -24.578125 C 35.0625 -22.367188 35.484375 -19.800781 35.484375 -16.875 C 35.484375 -13.988281 35.0625 -11.445312 34.21875 -9.25 C 33.382812 -7.0625 32.207031 -5.226562 30.6875 -3.75 C 29.164062 -2.269531 27.382812 -1.15625 25.34375 -0.40625 C 23.3125 0.34375 21.09375 0.71875 18.6875 0.71875 Z M 18.75 -7.15625 C 20.15625 -7.15625 21.398438 -7.476562 22.484375 -8.125 C 23.566406 -8.78125 24.425781 -9.820312 25.0625 -11.25 C 25.695312 -12.675781 26.015625 -14.550781 26.015625 -16.875 C 26.015625 -19.257812 25.695312 -21.175781 25.0625 -22.625 C 24.425781 -24.082031 23.566406 -25.140625 22.484375 -25.796875 C 21.398438 -26.460938 20.15625 -26.796875 18.75 -26.796875 C 17.363281 -26.796875 16.117188 -26.460938 15.015625 -25.796875 C 13.910156 -25.140625 13.039062 -24.082031 12.40625 -22.625 C 11.769531 -21.175781 11.453125 -19.257812 11.453125 -16.875 C 11.453125 -14.550781 11.769531 -12.671875 12.40625 -11.234375 C 13.039062 -9.804688 13.910156 -8.769531 15.015625 -8.125 C 16.117188 -7.476562 17.363281 -7.15625 18.75 -7.15625 Z M 18.75 -7.15625 "/></g></g></g><g fill="#d9d9d9" fill-opacity="1"><g transform="translate(87.420585, 58.729567)"><g><path d="M 4.328125 0 L 4.328125 -45.8125 L 14.078125 -45.8125 L 14.078125 0 Z M 4.328125 0 "/></g></g></g><g fill="#d9d9d9" fill-opacity="1"><g transform="translate(105.823454, 58.729567)"><g><path d="M 15.984375 0.71875 C 13.828125 0.71875 11.890625 0.296875 10.171875 -0.546875 C 8.453125 -1.390625 6.984375 -2.59375 5.765625 -4.15625 C 4.554688 -5.726562 3.632812 -7.597656 3 -9.765625 C 2.363281 -11.941406 2.046875 -14.347656 2.046875 -16.984375 C 2.046875 -19.617188 2.359375 -22.015625 2.984375 -24.171875 C 3.609375 -26.328125 4.515625 -28.1875 5.703125 -29.75 C 6.898438 -31.320312 8.347656 -32.53125 10.046875 -33.375 C 11.753906 -34.21875 13.675781 -34.640625 15.8125 -34.640625 C 17.476562 -34.640625 18.921875 -34.453125 20.140625 -34.078125 C 21.367188 -33.703125 22.421875 -33.195312 23.296875 -32.5625 C 24.171875 -31.925781 24.925781 -31.21875 25.5625 -30.4375 L 25.734375 -30.4375 L 25.734375 -45.8125 L 35.484375 -45.8125 L 35.484375 0 L 25.96875 0 L 25.96875 -3.546875 L 25.765625 -3.546875 C 25.222656 -2.859375 24.523438 -2.1875 23.671875 -1.53125 C 22.816406 -0.875 21.765625 -0.335938 20.515625 0.078125 C 19.265625 0.503906 17.753906 0.71875 15.984375 0.71875 Z M 19.234375 -7.125 C 20.660156 -7.125 21.898438 -7.515625 22.953125 -8.296875 C 24.015625 -9.078125 24.84375 -10.207031 25.4375 -11.6875 C 26.039062 -13.164062 26.34375 -14.960938 26.34375 -17.078125 C 26.34375 -19.078125 26.039062 -20.796875 25.4375 -22.234375 C 24.84375 -23.679688 24.015625 -24.789062 22.953125 -25.5625 C 21.898438 -26.34375 20.660156 -26.734375 19.234375 -26.734375 C 16.910156 -26.734375 15.101562 -25.925781 13.8125 -24.3125 C 12.53125 -22.695312 11.890625 -20.285156 11.890625 -17.078125 C 11.890625 -13.691406 12.53125 -11.1875 13.8125 -9.5625 C 15.101562 -7.9375 16.910156 -7.125 19.234375 -7.125 Z M 19.234375 -7.125 "/></g></g></g><g fill="#d9d9d9" fill-opacity="1"><g transform="translate(145.629034, 58.729567)"><g><path d="M 24.375 1.09375 C 19.894531 1.09375 16.03125 0.1875 12.78125 -1.625 C 9.53125 -3.445312 7.035156 -6.140625 5.296875 -9.703125 C 3.554688 -13.273438 2.6875 -17.675781 2.6875 -22.90625 C 2.6875 -28.15625 3.554688 -32.554688 5.296875 -36.109375 C 7.035156 -39.671875 9.53125 -42.359375 12.78125 -44.171875 C 16.03125 -45.992188 19.894531 -46.90625 24.375 -46.90625 C 27.71875 -46.90625 30.722656 -46.351562 33.390625 -45.25 C 36.054688 -44.15625 38.304688 -42.5625 40.140625 -40.46875 C 41.972656 -38.375 43.332031 -35.816406 44.21875 -32.796875 L 34.796875 -29.890625 C 34.171875 -32.597656 32.960938 -34.660156 31.171875 -36.078125 C 29.390625 -37.503906 27.125 -38.21875 24.375 -38.21875 C 21.757812 -38.21875 19.585938 -37.601562 17.859375 -36.375 C 16.128906 -35.144531 14.828125 -33.382812 13.953125 -31.09375 C 13.085938 -28.800781 12.65625 -26.070312 12.65625 -22.90625 C 12.65625 -19.726562 13.085938 -16.988281 13.953125 -14.6875 C 14.828125 -12.394531 16.128906 -10.632812 17.859375 -9.40625 C 19.585938 -8.175781 21.757812 -7.5625 24.375 -7.5625 C 27.125 -7.5625 29.390625 -8.273438 31.171875 -9.703125 C 32.960938 -11.140625 34.171875 -13.210938 34.796875 -15.921875 L 44.21875 -13.015625 C 43.332031 -10.015625 41.972656 -7.457031 40.140625 -5.34375 C 38.304688 -3.238281 36.054688 -1.640625 33.390625 -0.546875 C 30.722656 0.546875 27.71875 1.09375 24.375 1.09375 Z M 24.375 1.09375 "/></g></g></g><g fill="#d9d9d9" fill-opacity="1"><g transform="translate(191.549673, 58.729567)"><g><path d="M 18.6875 0.71875 C 16.289062 0.71875 14.066406 0.34375 12.015625 -0.40625 C 9.960938 -1.15625 8.175781 -2.269531 6.65625 -3.75 C 5.144531 -5.226562 3.960938 -7.0625 3.109375 -9.25 C 2.265625 -11.445312 1.84375 -13.988281 1.84375 -16.875 C 1.84375 -19.800781 2.265625 -22.367188 3.109375 -24.578125 C 3.960938 -26.785156 5.144531 -28.632812 6.65625 -30.125 C 8.175781 -31.613281 9.960938 -32.738281 12.015625 -33.5 C 14.066406 -34.257812 16.289062 -34.640625 18.6875 -34.640625 C 21.09375 -34.640625 23.3125 -34.257812 25.34375 -33.5 C 27.382812 -32.738281 29.164062 -31.613281 30.6875 -30.125 C 32.207031 -28.632812 33.382812 -26.785156 34.21875 -24.578125 C 35.0625 -22.367188 35.484375 -19.800781 35.484375 -16.875 C 35.484375 -13.988281 35.0625 -11.445312 34.21875 -9.25 C 33.382812 -7.0625 32.207031 -5.226562 30.6875 -3.75 C 29.164062 -2.269531 27.382812 -1.15625 25.34375 -0.40625 C 23.3125 0.34375 21.09375 0.71875 18.6875 0.71875 Z M 18.75 -7.15625 C 20.15625 -7.15625 21.398438 -7.476562 22.484375 -8.125 C 23.566406 -8.78125 24.425781 -9.820312 25.0625 -11.25 C 25.695312 -12.675781 26.015625 -14.550781 26.015625 -16.875 C 26.015625 -19.257812 25.695312 -21.175781 25.0625 -22.625 C 24.425781 -24.082031 23.566406 -25.140625 22.484375 -25.796875 C 21.398438 -26.460938 20.15625 -26.796875 18.75 -26.796875 C 17.363281 -26.796875 16.117188 -26.460938 15.015625 -25.796875 C 13.910156 -25.140625 13.039062 -24.082031 12.40625 -22.625 C 11.769531 -21.175781 11.453125 -19.257812 11.453125 -16.875 C 11.453125 -14.550781 11.769531 -12.671875 12.40625 -11.234375 C 13.039062 -9.804688 13.910156 -8.769531 15.015625 -8.125 C 16.117188 -7.476562 17.363281 -7.15625 18.75 -7.15625 Z M 18.75 -7.15625 "/></g></g></g><g fill="#d9d9d9" fill-opacity="1"><g transform="translate(228.90346, 58.729567)"><g><path d="M 17.765625 -34.640625 C 20.554688 -34.640625 22.976562 -34.207031 25.03125 -33.34375 C 27.09375 -32.476562 28.6875 -31.175781 29.8125 -29.4375 C 30.9375 -27.695312 31.5 -25.53125 31.5 -22.9375 L 31.5 0 L 22.9375 0 L 22.9375 -3.515625 C 20.894531 -1.878906 18.988281 -0.765625 17.21875 -0.171875 C 15.445312 0.421875 13.765625 0.71875 12.171875 0.71875 C 10.035156 0.71875 8.175781 0.34375 6.59375 -0.40625 C 5.019531 -1.15625 3.800781 -2.238281 2.9375 -3.65625 C 2.070312 -5.082031 1.640625 -6.796875 1.640625 -8.796875 C 1.640625 -10.453125 1.9375 -11.898438 2.53125 -13.140625 C 3.132812 -14.378906 3.972656 -15.457031 5.046875 -16.375 C 6.117188 -17.300781 7.382812 -18.097656 8.84375 -18.765625 C 10.3125 -19.441406 11.898438 -20.023438 13.609375 -20.515625 L 22.9375 -23.15625 C 22.851562 -24.53125 22.335938 -25.578125 21.390625 -26.296875 C 20.441406 -27.015625 19.140625 -27.375 17.484375 -27.375 C 16.191406 -27.375 14.875 -27.171875 13.53125 -26.765625 C 12.195312 -26.359375 10.914062 -25.8125 9.6875 -25.125 C 8.457031 -24.4375 7.375 -23.648438 6.4375 -22.765625 L 2.28125 -29.1875 C 4.625 -31.09375 7.125 -32.476562 9.78125 -33.34375 C 12.4375 -34.207031 15.097656 -34.640625 17.765625 -34.640625 Z M 15 -6.140625 C 16.34375 -6.140625 17.675781 -6.476562 19 -7.15625 C 20.332031 -7.84375 21.644531 -8.742188 22.9375 -9.859375 L 22.9375 -16.21875 L 15.921875 -13.96875 C 14.347656 -13.46875 13.175781 -12.890625 12.40625 -12.234375 C 11.632812 -11.578125 11.25 -10.679688 11.25 -9.546875 C 11.25 -8.492188 11.578125 -7.660156 12.234375 -7.046875 C 12.898438 -6.441406 13.820312 -6.140625 15 -6.140625 Z M 15 -6.140625 "/></g></g></g><g fill="#d9d9d9" fill-opacity="1"><g transform="translate(264.007366, 58.729567)"><g><path d="M 16.1875 0.6875 C 14.46875 0.6875 12.710938 0.484375 10.921875 0.078125 C 9.140625 -0.316406 7.40625 -0.910156 5.71875 -1.703125 C 4.039062 -2.503906 2.488281 -3.472656 1.0625 -4.609375 L 5.71875 -11.28125 C 6.582031 -10.351562 7.578125 -9.507812 8.703125 -8.75 C 9.835938 -7.988281 11.046875 -7.382812 12.328125 -6.9375 C 13.609375 -6.5 14.90625 -6.28125 16.21875 -6.28125 C 17.09375 -6.28125 17.894531 -6.398438 18.625 -6.640625 C 19.363281 -6.890625 19.945312 -7.265625 20.375 -7.765625 C 20.8125 -8.273438 21.03125 -8.925781 21.03125 -9.71875 C 21.03125 -10.675781 20.660156 -11.375 19.921875 -11.8125 C 19.179688 -12.257812 18.070312 -12.675781 16.59375 -13.0625 L 12.40625 -14.15625 C 10.425781 -14.695312 8.726562 -15.378906 7.3125 -16.203125 C 5.894531 -17.035156 4.8125 -18.085938 4.0625 -19.359375 C 3.3125 -20.640625 2.9375 -22.21875 2.9375 -24.09375 C 2.9375 -26.46875 3.507812 -28.4375 4.65625 -30 C 5.800781 -31.5625 7.390625 -32.722656 9.421875 -33.484375 C 11.453125 -34.253906 13.789062 -34.640625 16.4375 -34.640625 C 18.5 -34.640625 20.351562 -34.410156 22 -33.953125 C 23.65625 -33.492188 25.160156 -32.882812 26.515625 -32.125 C 27.878906 -31.363281 29.117188 -30.519531 30.234375 -29.59375 L 25.90625 -23.65625 C 24.40625 -25.15625 22.820312 -26.273438 21.15625 -27.015625 C 19.488281 -27.753906 17.898438 -28.125 16.390625 -28.125 C 15.140625 -28.125 14.128906 -27.867188 13.359375 -27.359375 C 12.585938 -26.847656 12.203125 -26.132812 12.203125 -25.21875 C 12.203125 -24.476562 12.472656 -23.90625 13.015625 -23.5 C 13.566406 -23.101562 14.351562 -22.769531 15.375 -22.5 L 21 -20.96875 C 22.15625 -20.664062 23.300781 -20.265625 24.4375 -19.765625 C 25.582031 -19.273438 26.632812 -18.632812 27.59375 -17.84375 C 28.5625 -17.0625 29.332031 -16.0625 29.90625 -14.84375 C 30.488281 -13.625 30.78125 -12.109375 30.78125 -10.296875 C 30.78125 -6.816406 29.539062 -4.113281 27.0625 -2.1875 C 24.59375 -0.269531 20.96875 0.6875 16.1875 0.6875 Z M 16.1875 0.6875 "/></g></g></g><g fill="#d9d9d9" fill-opacity="1"><g transform="translate(296.601789, 58.729567)"><g><path d="M 14.484375 0 C 11.328125 0 9.007812 -0.816406 7.53125 -2.453125 C 6.050781 -4.085938 5.3125 -6.585938 5.3125 -9.953125 L 5.3125 -28.1875 L 0.71875 -28.1875 L 0.71875 -33.984375 L 5.3125 -33.984375 L 5.3125 -45.8125 L 15 -45.8125 L 15 -33.984375 L 22.09375 -33.984375 L 22.09375 -28.1875 L 15 -28.1875 L 15 -11.90625 C 15 -10.78125 15.101562 -9.898438 15.3125 -9.265625 C 15.53125 -8.628906 15.910156 -8.1875 16.453125 -7.9375 C 17.003906 -7.6875 17.757812 -7.5625 18.71875 -7.5625 L 22.09375 -7.5625 L 22.09375 0 Z M 14.484375 0 "/></g></g></g><g fill="#d9d9d9" fill-opacity="1"><g transform="translate(320.62936, 58.729567)"><g><path d="M 5.9375 0 L 5.9375 -10.5 L 16.359375 -10.5 L 16.359375 0 Z M 5.9375 0 "/></g></g></g></g></g></svg>